<?xml version="1.0" encoding="UTF-8" standalone="no"?>
<svg
   xmlns:dc="http://purl.org/dc/elements/1.1/"
   xmlns:cc="http://creativecommons.org/ns#"
   xmlns:rdf="http://www.w3.org/1999/02/22-rdf-syntax-ns#"
   xmlns:svg="http://www.w3.org/2000/svg"
   xmlns="http://www.w3.org/2000/svg"
   xmlns:sodipodi="http://sodipodi.sourceforge.net/DTD/sodipodi-0.dtd"
   xmlns:inkscape="http://www.inkscape.org/namespaces/inkscape"
   inkscape:version="1.0 (6e3e5246a0, 2020-05-07)"
   sodipodi:docname="gremloon_logo.svg"
   id="svg3"
   version="1.1"
   viewBox="0 0 6464 1472"
   height="127.171mm"
   width="558.445mm">
  <metadata
     id="metadata9">
    <rdf:RDF>
      <cc:Work
         rdf:about="">
        <dc:format>image/svg+xml</dc:format>
        <dc:type
           rdf:resource="http://purl.org/dc/dcmitype/StillImage" />
      </cc:Work>
    </rdf:RDF>
  </metadata>
  <defs
     id="defs7" />
  <sodipodi:namedview
     inkscape:current-layer="layer2"
     inkscape:window-maximized="1"
     inkscape:window-y="27"
     inkscape:window-x="0"
     inkscape:cy="266.96806"
     inkscape:cx="980.05344"
     inkscape:zoom="0.43719741"
     showgrid="false"
     id="namedview5"
     inkscape:window-height="1025"
     inkscape:window-width="1920"
     inkscape:pageshadow="2"
     inkscape:pageopacity="0"
     guidetolerance="10"
     gridtolerance="10"
     objecttolerance="10"
     borderopacity="1"
     bordercolor="#666666"
     pagecolor="#ffffff" />
  <g
     style="display:inline"
     inkscape:label="Layer 2"
     id="layer2"
     inkscape:groupmode="layer">
    <rect
       y="-1013.5749"
       x="-783.65472"
       height="3237.6172"
       width="7959.9521"
       id="rect882"
       style="fill:#ffffff;fill-opacity:1;stroke:#ff0000;stroke-width:3.06255;stroke-opacity:1" />
  </g>
  <g
     style="display:inline"
     inkscape:label="Layer 1"
     id="layer1"
     inkscape:groupmode="layer">
    <path
       style="fill:#d90b36;fill-opacity:1;stroke:#ff0000;stroke-opacity:1"
       d="m 3543,141.44 c -29.4,5.5 -47.95,27.68 -48,57.56 0,0 0,183 0,183 0,0 0,488 0,488 0,0 1.84,23 1.84,23 8.23,76.98 49.1,151.67 126.16,177.33 11.58,3.86 29.85,7.52 42,7.67 0,0 18,0 18,0 27.71,-0.04 62.4,-13.24 72.94,-41 1.97,-5.2 2.99,-10.44 3.06,-16 0.31,-26.65 -9.72,-53.33 -38,-61.08 -11.47,-3.14 -30.53,-1.86 -43,-1.92 -43.97,-0.21 -59.45,-50.96 -62.09,-87 0,0 -0.91,-12 -0.91,-12 0,0 0,-468 0,-468 0,0 0,-192 0,-192 -0.04,-22.46 -11.86,-43.89 -33,-53.13 -11.8,-5.15 -26.31,-6.06 -39,-4.43 z M 1233,503 c 0,-24.19 3.05,-52.37 -18,-69.53 -10.48,-8.55 -21.98,-10.65 -35,-11.56 0,0 -7,-0.73 -7,-0.73 0,0 -7,0.73 -7,0.73 -14.4,1.05 -27.38,4.57 -37.91,15.18 -10.65,10.74 -15.07,27.15 -15.09,41.91 0,0 0,542 0,542 0.02,9.71 1.96,21.29 6.37,30 9.22,18.17 28.98,26.77 48.63,27 19.96,0.23 40.26,-1.87 53.47,-19 12.86,-16.66 11.53,-36.3 11.53,-56 0,0 0,-98 0,-98 0,0 0,-184 0,-184 0,-37.22 -3.71,-76.28 12.31,-111 18.23,-39.51 60.14,-65.72 100.69,-77.58 16.39,-4.79 42.08,-10.22 59,-10.42 0,0 17,-1 17,-1 0,0 19,1 19,1 0,0 28,2.28 28,2.28 0,0 50,7.72 50,7.72 30.52,0.34 50.17,-18.5 51.91,-49 0.98,-17.17 -10.06,-31.37 -22.91,-41.34 -23.6,-18.31 -62.52,-26.32 -92,-26.66 0,0 -15,-1 -15,-1 -16.39,-0.03 -32.78,0.88 -49,3.27 -49.9,7.35 -95.49,28.68 -134,61.17 0,0 -13.96,12.6 -13.96,12.6 0,0 -11.04,11.96 -11.04,11.96 z m 1283,-22 c 0,0 -3.44,-19 -3.44,-19 -3.68,-12.31 -12.65,-23.82 -23.56,-30.53 -22.99,-14.16 -59.27,-11.14 -78.91,7.7 -11.64,11.17 -17.07,26.95 -17.09,42.83 0,0 0,538 0,538 0.05,30.83 24.31,58.63 56,59 0,0 11,0 11,0 6.36,-0.08 13.07,-1.54 19,-3.81 5.22,-2.01 9.57,-4.44 14,-7.87 26.46,-20.48 23,-50.76 23,-80.32 0,0 0,-37 0,-37 0,0 0,-223 0,-223 0,0 0,-58 0,-58 0.01,-7.04 1.09,-14.07 2.25,-21 4.96,-29.82 16.58,-54.48 36.92,-77 24.32,-26.93 55.94,-41.47 91.83,-44.09 0,0 10,-0.91 10,-0.91 39.76,-0.46 77.92,12.86 104.83,43 19.08,21.37 30.83,59.53 31.17,88 0,0 0,4 0,4 0,0 1,14 1,14 0,0 0,129 0,129 0,0 0,217 0,217 0.05,30.88 24.69,57.63 56,58 0,0 11,0 11,0 6.45,-0.08 14.11,-1.67 20,-4.31 21.45,-9.61 34.96,-29.05 35,-52.69 0,0 0,-23 0,-23 0,0 0,-49 0,-49 0,0 0,-219 0,-219 0,0 0,-44 0,-44 0,0 1,-15 1,-15 0.04,-22.94 5.18,-46.31 15.26,-67 6.43,-13.19 15.09,-25.14 24.91,-36 17.51,-19.35 43.35,-33.82 68.83,-39.34 0,0 21,-2.83 21,-2.83 0,0 9,-0.83 9,-0.83 36.88,-0.43 74.78,10.95 100.96,38 22.78,23.55 32.79,55.96 35.13,88 0,0 0.91,12 0.91,12 0,0 0,137 0,137 0,0 0,216 0,216 0.05,31.67 22.47,61.6 56,62 12.53,0.14 20.03,0.4 32,-4.45 22.31,-9.05 34.96,-32.18 35,-55.55 0,0 0,-161 0,-161 0,0 0,-142 0,-142 0,0 0,-54 0,-54 0,0 -0.96,-13 -0.96,-13 -1.87,-42.92 -11.55,-82.72 -31.3,-121 -6.89,-13.36 -18.13,-29.71 -28.03,-41 -32.45,-37.01 -77.5,-59.72 -125.71,-67.75 -9.87,-1.65 -21.03,-3.23 -31,-3.25 0,0 -16,-1 -16,-1 0,0 -16,1 -16,1 -33.65,0.05 -75.46,10.29 -106,24.31 -23.89,10.97 -49.01,27.57 -68,45.73 0,0 -21,22.96 -21,22.96 -3.09,-7.3 -11.57,-16.84 -16.87,-23 -17.02,-19.77 -37.91,-34.63 -61.13,-46.25 -23.95,-11.97 -47.51,-18.58 -74,-22.03 0,0 -17,-1.72 -17,-1.72 0,0 -18,-0.99 -18,-0.99 0,0 -18,0.99 -18,0.99 -7.99,0.02 -19.99,1.59 -28,2.92 -46.33,7.67 -89.69,28.77 -123,62.08 z m 3070,13 c 0,-11.37 -0.29,-25.34 -4.46,-36 -8.49,-21.7 -26.63,-34.25 -49.54,-36.08 -3.29,-0.27 -5.62,-0.98 -9,-0.74 -7.69,0.55 -15.77,1.46 -23,4.28 -4.6,1.8 -10.02,4.79 -14,7.7 -25.8,18.82 -23,43.93 -23,71.84 0,0 0,58 0,58 0,0 0,457 0,457 0.05,30.83 24.31,58.63 56,59 10.52,0.12 17.78,0.43 28,-3.08 26.26,-9 38.69,-33.46 39,-59.92 0,0 0,-107 0,-107 0,0 0,-237 0,-237 0.01,-9.2 1.89,-19.08 4.13,-28 6.2,-24.69 18.95,-45.08 36.87,-63 33.84,-33.85 75.7,-50.78 123,-54.09 0,0 10,-0.91 10,-0.91 34.56,-0.4 71.87,5.7 103,21.27 32.64,16.32 60.37,45.32 75.14,78.73 10.59,23.97 15.16,49.04 16.95,75 0,0 0.91,10 0.91,10 0,0 0,96 0,96 0,0 0,211 0,211 0.05,31.72 22.75,60.61 56,61 8.78,0.1 15.44,0.51 24,-2.04 28.57,-8.48 42.95,-32.06 43,-60.96 0,0 0,-180 0,-180 0,0 0,-79 0,-79 0,0 0,-42 0,-42 0,0 -1,-15 -1,-15 -0.58,-50.16 -14.39,-105.17 -38.86,-149 -12.78,-22.89 -31.72,-47.27 -51.14,-64.83 -35.29,-31.92 -77.81,-52.36 -124,-62.82 -13.44,-3.04 -38.54,-7.19 -52,-7.39 0,0 -12,0 -12,0 0,0 -9,-0.95 -9,-0.95 0,0 -12,0.95 -12,0.95 0,0 -11,0 -11,0 0,0 -10,0.96 -10,0.96 -24.7,1.97 -49.65,7.46 -73,15.77 -37.43,13.33 -69.86,34.53 -99,61.31 z M 812,943 c 1.72,6.06 1,16.39 1,23 0,0 0,41 0,41 0,0 -1,19 -1,19 0,0 -0.92,10 -0.92,10 -2.15,26.9 -9.14,58.44 -20.39,83 -9.12,19.91 -21.15,39.71 -35.86,56 -30.14,33.38 -69.53,55.57 -113.83,63.58 -20.95,3.78 -32.2,3.45 -53,3.42 -18.94,-0.03 -47.72,-5.08 -66,-10.42 -34.5,-10.09 -66.68,-28.15 -93,-52.67 -18.33,-17.07 -28.2,-38.69 -54,-45.76 -5.08,-1.39 -7.68,-2.08 -13,-2.15 0,0 -7,0 -7,0 -28.28,0.13 -53.86,24.74 -54.96,53 -0.74,18.96 10.09,32.47 21.69,46 22.66,26.42 49.42,49.4 79.27,67.4 45.16,27.24 92.82,43.07 145,49.88 11.66,1.52 23.24,2.7 35,2.72 0,0 15,1 15,1 0,0 13,-0.96 13,-0.96 0,0 12,0 12,0 0,0 11,-0.95 11,-0.95 26.72,-1.95 55.66,-7.64 81,-16.43 32.19,-11.18 58.58,-25.62 86,-45.81 12.25,-9.02 23.27,-19.12 34,-29.85 49.74,-49.74 80.8,-112.82 92.41,-182 2.45,-14.55 4.42,-29.25 4.59,-44 0,0 1,-15 1,-15 0,0 0,-107 0,-107 0,0 0,-120 0,-120 0,-38.38 0.45,-72.88 -6.42,-111 -9.47,-52.51 -32.13,-103.66 -66,-145 -16.93,-20.66 -32.24,-35.55 -53.58,-51.63 -25.21,-18.98 -50.52,-32.67 -80,-43.79 -30.09,-11.35 -62,-17.47 -94,-19.67 0,0 -10,-0.91 -10,-0.91 0,0 -40,0 -40,0 0,0 -23,1.84 -23,1.84 -48.91,5.23 -89.16,17.39 -132,41.88 -61.62,35.23 -109.58,93.01 -134.58,159.28 -11.08,29.39 -18.22,61.69 -20.51,93 0,0 -0.91,10 -0.91,10 0,0 -1,19 -1,19 0,0 0,16 0,16 0,0 1,20 1,20 0.06,12.39 4.31,41.27 6.8,54 16.83,85.81 66.7,164.01 142.2,209.55 52.68,31.77 107.24,42.16 168,41.45 0,0 10,-0.91 10,-0.91 64.03,-4.38 120.27,-28.36 166,-74.09 14.5,-14.5 25.25,-26.9 36.67,-44 4.09,-6.13 9.82,-14.2 12.33,-21 z m 914,-150 c 0,0 450,0 450,0 6.45,-0.01 18.93,-1.19 25,-3.04 21.49,-6.56 35.96,-25.5 36,-47.96 0,0 0,-23 0,-23 -0.02,-13.04 -2.9,-37.82 -5.08,-51 0,0 -5.34,-27 -5.34,-27 0,0 -9.25,-32 -9.25,-32 -12.63,-37.55 -32.89,-73.58 -59.5,-103 -42.64,-47.15 -97.69,-74.4 -159.83,-84.75 -10.58,-1.77 -28.53,-4.12 -39,-4.25 0,0 -39,0 -39,0 0,0 -36,3.28 -36,3.28 -46.27,6.24 -91.01,23.18 -130,48.8 -68.07,44.73 -112.83,115.2 -130.65,193.92 -3.56,15.75 -8.16,44.17 -8.35,60 0,0 -1,19 -1,19 0,0 0,15 0,15 0,0 1,15 1,15 0,0 1.84,24 1.84,24 5.79,54.21 24.82,106.55 56.59,151 53.98,75.53 135.27,120.37 226.57,132.28 0,0 23,2.72 23,2.72 0,0 9,0 9,0 0,0 10,1 10,1 0,0 23,0 23,0 0,0 12,-0.91 12,-0.91 15.22,-1.05 30.01,-2.89 45,-5.89 39.82,-7.96 81.7,-22.84 117,-42.92 0,0 25,-15.99 25,-15.99 15.04,-10.77 28.53,-21.09 28.99,-41.29 0.65,-28.99 -26.21,-55.66 -54.99,-56 -31.1,-0.36 -40.21,14.95 -65,27.74 -29.41,15.18 -72.65,31.21 -106,31.26 0,0 -25,0 -25,0 -19.01,-0.03 -47.82,-5.86 -66,-11.74 -55.29,-17.9 -103.74,-59.28 -129.73,-111.26 -9.96,-19.91 -16.16,-41.19 -20.27,-63 z M 4114,417.21 c 0,0 -11,0.96 -11,0.96 0,0 -18,2.11 -18,2.11 -20.72,2.79 -41.1,7.68 -61,14.06 -64.79,20.79 -123.7,67 -160.92,123.66 -24.92,37.93 -40.99,80.31 -48.49,125 0,0 -4.59,40 -4.59,40 0,0 -1,18 -1,18 0,0 0,18 0,18 0,0 1,18 1,18 0,0 3.43,33 3.43,33 10.04,67.74 40.57,130.97 88.61,179.99 0,0 8.96,8.1 8.96,8.1 56.32,52.2 128.59,80.62 205,83.95 0,0 11,0.96 11,0.96 67.07,0.78 128.16,-9.27 187,-43.42 54.74,-31.77 96.18,-76.63 123.74,-133.58 16.4,-33.87 26.43,-71.64 30.42,-109 0,0 1.84,-20 1.84,-20 0,0 1,-19 1,-19 0,0 0,-14 0,-14 0,0 -1,-15 -1,-15 0,0 -1.84,-25 -1.84,-25 -5.61,-52.46 -22.18,-101.77 -51.24,-146 -37.46,-57.02 -89.52,-96.71 -152.92,-120.81 -29.66,-11.27 -61.46,-17.11 -93,-19.28 0,0 -12,-0.7 -12,-0.7 0,0 -45,0 -45,0 z m 810,0 c 0,0 -11,0.96 -11,0.96 0,0 -18,2.11 -18,2.11 -20.72,2.79 -41.1,7.68 -61,14.06 -64.79,20.79 -123.7,67 -160.92,123.66 -24.92,37.93 -40.99,80.31 -48.49,125 0,0 -4.59,40 -4.59,40 0,0 -1,18 -1,18 0,0 0,18 0,18 0,0 1,18 1,18 0,0 3.43,33 3.43,33 10.04,67.74 40.57,130.97 88.61,179.99 0,0 8.96,8.1 8.96,8.1 56.32,52.2 128.59,80.62 205,83.95 0,0 11,0.96 11,0.96 67.07,0.78 128.16,-9.27 187,-43.42 54.74,-31.77 96.18,-76.63 123.74,-133.58 16.4,-33.87 26.43,-71.64 30.42,-109 0,0 1.84,-20 1.84,-20 0,0 1,-19 1,-19 0,0 0,-14 0,-14 0,0 -1,-15 -1,-15 0,0 -1.84,-25 -1.84,-25 -5.61,-52.46 -22.18,-101.77 -51.24,-146 -37.46,-57.02 -89.52,-96.71 -152.92,-120.81 -29.66,-11.27 -61.46,-17.11 -93,-19.28 0,0 -12,-0.7 -12,-0.7 0,0 -45,0 -45,0 z M 2126,696 c 0,0 -399,0 -399,0 0,0 3.37,-15 3.37,-15 2.96,-11.96 6.5,-23.55 11.08,-35 18.18,-45.46 52.66,-85.07 97.55,-105.69 32.65,-15 68.31,-20.48 104,-20.31 0,0 11,0.91 11,0.91 40.83,2.81 74.64,14.1 106,41.38 23.92,20.81 40.8,47.32 52.19,76.71 5.73,14.78 13.47,41.36 13.81,57 z M 585,525.14 c 0,0 24,0 24,0 20.12,-0.11 49.16,5.35 68,12.44 31.2,11.73 57.35,28.53 79.83,53.42 41.42,45.86 56.87,106.52 56.17,167 0,0 -0.91,10 -0.91,10 -1.74,25.4 -5.32,47.93 -14.14,72 -19.92,54.33 -59.23,96.89 -112.95,118.99 -20.23,8.32 -41.28,12.77 -63,14.97 0,0 -10,0 -10,0 0,0 -13,1.04 -13,1.04 0,0 -10,-1.04 -10,-1.04 0,0 -10,0 -10,0 -25.28,-2.54 -52.2,-8.83 -75,-20.23 C 484.2,943.83 463.33,928.98 448.04,913 403.15,866.09 386.26,806.61 387,743 c 0,0 0.91,-10 0.91,-10 3.71,-54.15 19.04,-99.57 55.38,-141 24.24,-27.65 58.41,-48.5 93.71,-58.57 12.1,-3.46 24.52,-5.66 37,-7.15 0,0 11,-1.14 11,-1.14 z m 3540,0 c 0,0 24,0 24,0 20.12,-0.11 49.16,5.35 68,12.44 31.2,11.73 57.35,28.53 79.83,53.42 41.42,45.86 56.87,106.52 56.17,167 0,0 -0.91,10 -0.91,10 -1.74,25.4 -5.32,47.93 -14.14,72 -19.92,54.33 -59.23,96.89 -112.95,118.99 -20.23,8.32 -41.28,12.77 -63,14.97 0,0 -10,0 -10,0 0,0 -13,1.04 -13,1.04 0,0 -10,-1.04 -10,-1.04 0,0 -10,0 -10,0 -25.28,-2.54 -52.2,-8.83 -75,-20.23 -19.8,-9.9 -40.67,-24.75 -55.96,-40.73 -44.89,-46.91 -61.78,-106.39 -61.04,-170 0,0 0.91,-10 0.91,-10 3.71,-54.15 19.04,-99.57 55.38,-141 24.24,-27.65 58.41,-48.5 93.71,-58.57 12.1,-3.46 24.52,-5.66 37,-7.15 0,0 11,-1.14 11,-1.14 z m 810,0 c 0,0 24,0 24,0 20.12,-0.11 49.16,5.35 68,12.44 31.2,11.73 57.35,28.53 79.83,53.42 41.42,45.86 56.87,106.52 56.17,167 0,0 -0.91,10 -0.91,10 -1.74,25.4 -5.32,47.93 -14.14,72 -19.92,54.33 -59.23,96.89 -112.95,118.99 -20.23,8.32 -41.28,12.77 -63,14.97 0,0 -10,0 -10,0 0,0 -13,1.04 -13,1.04 0,0 -10,-1.04 -10,-1.04 0,0 -10,0 -10,0 -25.28,-2.54 -52.2,-8.83 -75,-20.23 -19.8,-9.9 -40.67,-24.75 -55.96,-40.73 -44.89,-46.91 -61.78,-106.39 -61.04,-170 0,0 0.91,-10 0.91,-10 3.71,-54.15 19.04,-99.57 55.38,-141 24.24,-27.65 58.41,-48.5 93.71,-58.57 12.1,-3.46 24.52,-5.66 37,-7.15 0,0 11,-1.14 11,-1.14 z"
       stroke-width="1"
       stroke="black"
       fill="none"
       id="Selection" />
  </g>
</svg>
